<mxfile host="Electron" agent="Mozilla/5.0 (Windows NT 10.0; Win64; x64) AppleWebKit/537.36 (KHTML, like Gecko) draw.io/28.0.6 Chrome/138.0.7204.100 Electron/37.2.3 Safari/537.36" version="28.0.6" pages="3">
  <diagram id="zcnI7_GE5Q4Qad7wwIX9" name="IChannel">
    <mxGraphModel dx="-172" dy="702" grid="1" gridSize="10" guides="1" tooltips="1" connect="1" arrows="1" fold="1" page="1" pageScale="1" pageWidth="680" pageHeight="480" math="0" shadow="0">
      <root>
        <mxCell id="0" />
        <mxCell id="1" parent="0" />
        <mxCell id="wmQ_BLsgHJ9PnDV7FH8v-1" value="" style="rounded=0;whiteSpace=wrap;html=1;fillColor=none;" parent="1" vertex="1">
          <mxGeometry x="1360" width="680" height="480" as="geometry" />
        </mxCell>
        <mxCell id="3d5nxN8G6VczTjZYptSl-37" style="rounded=0;orthogonalLoop=1;jettySize=auto;html=1;shadow=0;" parent="1" source="3d5nxN8G6VczTjZYptSl-26" target="3d5nxN8G6VczTjZYptSl-27" edge="1">
          <mxGeometry relative="1" as="geometry" />
        </mxCell>
        <mxCell id="3d5nxN8G6VczTjZYptSl-38" value="" style="edgeStyle=none;rounded=0;orthogonalLoop=1;jettySize=auto;html=1;shadow=0;" parent="1" source="3d5nxN8G6VczTjZYptSl-26" target="3d5nxN8G6VczTjZYptSl-34" edge="1">
          <mxGeometry relative="1" as="geometry" />
        </mxCell>
        <mxCell id="3d5nxN8G6VczTjZYptSl-39" style="edgeStyle=none;rounded=0;orthogonalLoop=1;jettySize=auto;html=1;shadow=0;" parent="1" source="3d5nxN8G6VczTjZYptSl-26" target="3d5nxN8G6VczTjZYptSl-29" edge="1">
          <mxGeometry relative="1" as="geometry" />
        </mxCell>
        <mxCell id="3d5nxN8G6VczTjZYptSl-49" style="edgeStyle=none;rounded=0;orthogonalLoop=1;jettySize=auto;html=1;shadow=0;" parent="1" source="3d5nxN8G6VczTjZYptSl-26" target="3d5nxN8G6VczTjZYptSl-48" edge="1">
          <mxGeometry relative="1" as="geometry" />
        </mxCell>
        <mxCell id="3d5nxN8G6VczTjZYptSl-26" value="IChannel&lt;br&gt;频道" style="rounded=1;whiteSpace=wrap;html=1;fillColor=#d5e8d4;strokeColor=#82b366;" parent="1" vertex="1">
          <mxGeometry x="1640" y="40" width="120" height="40" as="geometry" />
        </mxCell>
        <mxCell id="3d5nxN8G6VczTjZYptSl-40" value="" style="edgeStyle=none;rounded=0;orthogonalLoop=1;jettySize=auto;html=1;shadow=0;" parent="1" source="3d5nxN8G6VczTjZYptSl-27" target="3d5nxN8G6VczTjZYptSl-28" edge="1">
          <mxGeometry relative="1" as="geometry" />
        </mxCell>
        <mxCell id="3d5nxN8G6VczTjZYptSl-27" value="IPrivateChannel&lt;br&gt;私有频道" style="rounded=1;whiteSpace=wrap;html=1;fillColor=#d5e8d4;strokeColor=#82b366;" parent="1" vertex="1">
          <mxGeometry x="1400" y="160" width="120" height="40" as="geometry" />
        </mxCell>
        <mxCell id="3d5nxN8G6VczTjZYptSl-28" value="IDMChannel&lt;br&gt;私聊频道" style="rounded=1;whiteSpace=wrap;html=1;fillColor=#dae8fc;strokeColor=#6c8ebf;" parent="1" vertex="1">
          <mxGeometry x="1400" y="320" width="120" height="40" as="geometry" />
        </mxCell>
        <mxCell id="3d5nxN8G6VczTjZYptSl-41" value="" style="edgeStyle=none;rounded=0;orthogonalLoop=1;jettySize=auto;html=1;shadow=0;" parent="1" source="3d5nxN8G6VczTjZYptSl-29" target="3d5nxN8G6VczTjZYptSl-31" edge="1">
          <mxGeometry relative="1" as="geometry" />
        </mxCell>
        <mxCell id="3d5nxN8G6VczTjZYptSl-43" style="edgeStyle=none;rounded=0;orthogonalLoop=1;jettySize=auto;html=1;shadow=0;" parent="1" source="3d5nxN8G6VczTjZYptSl-29" target="3d5nxN8G6VczTjZYptSl-30" edge="1">
          <mxGeometry relative="1" as="geometry" />
        </mxCell>
        <mxCell id="3d5nxN8G6VczTjZYptSl-29" value="IGuildChannel&lt;br&gt;服务器频道" style="rounded=1;whiteSpace=wrap;html=1;fillColor=#d5e8d4;strokeColor=#82b366;" parent="1" vertex="1">
          <mxGeometry x="1720" y="160" width="120" height="40" as="geometry" />
        </mxCell>
        <mxCell id="3d5nxN8G6VczTjZYptSl-30" value="ICategoryChannel&lt;br&gt;分组频道" style="rounded=1;whiteSpace=wrap;html=1;fillColor=#d5e8d4;strokeColor=#82b366;" parent="1" vertex="1">
          <mxGeometry x="1800" y="240" width="120" height="40" as="geometry" />
        </mxCell>
        <mxCell id="3d5nxN8G6VczTjZYptSl-44" style="edgeStyle=none;rounded=0;orthogonalLoop=1;jettySize=auto;html=1;shadow=0;exitX=0.25;exitY=1;exitDx=0;exitDy=0;entryX=0.75;entryY=0;entryDx=0;entryDy=0;" parent="1" source="3d5nxN8G6VczTjZYptSl-31" target="3d5nxN8G6VczTjZYptSl-33" edge="1">
          <mxGeometry relative="1" as="geometry">
            <mxPoint x="1690" y="390" as="targetPoint" />
          </mxGeometry>
        </mxCell>
        <mxCell id="3d5nxN8G6VczTjZYptSl-45" style="edgeStyle=none;rounded=0;orthogonalLoop=1;jettySize=auto;html=1;shadow=0;exitX=0.75;exitY=1;exitDx=0;exitDy=0;" parent="1" source="3d5nxN8G6VczTjZYptSl-33" target="3d5nxN8G6VczTjZYptSl-32" edge="1">
          <mxGeometry relative="1" as="geometry" />
        </mxCell>
        <mxCell id="t3p8ZY0DVeDXkgQrM7UE-2" style="rounded=0;orthogonalLoop=1;jettySize=auto;html=1;entryX=0.25;entryY=0;entryDx=0;entryDy=0;strokeColor=default;" parent="1" source="3d5nxN8G6VczTjZYptSl-31" target="t3p8ZY0DVeDXkgQrM7UE-1" edge="1">
          <mxGeometry relative="1" as="geometry" />
        </mxCell>
        <mxCell id="3d5nxN8G6VczTjZYptSl-31" value="INestedChannel&lt;br&gt;嵌套频道" style="rounded=1;whiteSpace=wrap;html=1;fillColor=#d5e8d4;strokeColor=#82b366;" parent="1" vertex="1">
          <mxGeometry x="1640" y="240" width="120" height="40" as="geometry" />
        </mxCell>
        <mxCell id="3d5nxN8G6VczTjZYptSl-32" value="IVoiceChannel&lt;br&gt;语音频道" style="rounded=1;whiteSpace=wrap;html=1;fillColor=#ffe6cc;strokeColor=#d79b00;" parent="1" vertex="1">
          <mxGeometry x="1720" y="400" width="120" height="40" as="geometry" />
        </mxCell>
        <mxCell id="3d5nxN8G6VczTjZYptSl-33" value="ITextChannel&lt;br&gt;服务器文字频道" style="rounded=1;whiteSpace=wrap;html=1;fillColor=#dae8fc;strokeColor=#6c8ebf;" parent="1" vertex="1">
          <mxGeometry x="1560" y="320" width="120" height="40" as="geometry" />
        </mxCell>
        <mxCell id="3d5nxN8G6VczTjZYptSl-46" style="edgeStyle=none;rounded=0;orthogonalLoop=1;jettySize=auto;html=1;shadow=0;" parent="1" source="3d5nxN8G6VczTjZYptSl-34" target="3d5nxN8G6VczTjZYptSl-28" edge="1">
          <mxGeometry relative="1" as="geometry" />
        </mxCell>
        <mxCell id="3d5nxN8G6VczTjZYptSl-47" style="edgeStyle=none;rounded=0;orthogonalLoop=1;jettySize=auto;html=1;shadow=0;exitX=0.5;exitY=1;exitDx=0;exitDy=0;" parent="1" source="3d5nxN8G6VczTjZYptSl-34" target="3d5nxN8G6VczTjZYptSl-33" edge="1">
          <mxGeometry relative="1" as="geometry" />
        </mxCell>
        <mxCell id="3d5nxN8G6VczTjZYptSl-34" value="IMessageChannel&lt;br&gt;消息频道" style="rounded=1;whiteSpace=wrap;html=1;fillColor=#dae8fc;strokeColor=#6c8ebf;" parent="1" vertex="1">
          <mxGeometry x="1560" y="160" width="120" height="40" as="geometry" />
        </mxCell>
        <mxCell id="3d5nxN8G6VczTjZYptSl-50" style="edgeStyle=none;rounded=0;orthogonalLoop=1;jettySize=auto;html=1;shadow=0;entryX=0.75;entryY=0;entryDx=0;entryDy=0;exitX=0.5;exitY=1;exitDx=0;exitDy=0;" parent="1" source="3d5nxN8G6VczTjZYptSl-48" target="3d5nxN8G6VczTjZYptSl-32" edge="1">
          <mxGeometry relative="1" as="geometry">
            <Array as="points">
              <mxPoint x="1940" y="360" />
            </Array>
          </mxGeometry>
        </mxCell>
        <mxCell id="3d5nxN8G6VczTjZYptSl-48" value="IAudioChannel&lt;br&gt;音频频道" style="rounded=1;whiteSpace=wrap;html=1;fillColor=#ffe6cc;strokeColor=#d79b00;" parent="1" vertex="1">
          <mxGeometry x="1880" y="160" width="120" height="40" as="geometry" />
        </mxCell>
        <mxCell id="t3p8ZY0DVeDXkgQrM7UE-1" value="IForumChannel&lt;br&gt;服务器帖子频道" style="rounded=1;whiteSpace=wrap;html=1;fillColor=#dae8fc;strokeColor=#6c8ebf;" parent="1" vertex="1">
          <mxGeometry x="1720" y="320" width="120" height="40" as="geometry" />
        </mxCell>
      </root>
    </mxGraphModel>
  </diagram>
  <diagram id="nSTv_X4l-jtdfmuhDY5W" name="IMessage">
    <mxGraphModel dx="36" dy="442" grid="1" gridSize="10" guides="1" tooltips="1" connect="1" arrows="1" fold="1" page="1" pageScale="1" pageWidth="680" pageHeight="240" math="0" shadow="0">
      <root>
        <mxCell id="0" />
        <mxCell id="1" parent="0" />
        <mxCell id="E59G1nWpvey7Q_nnMST8-1" value="" style="rounded=0;whiteSpace=wrap;html=1;fillColor=none;" vertex="1" parent="1">
          <mxGeometry x="680" width="680" height="240" as="geometry" />
        </mxCell>
        <mxCell id="mY3gvmDOgEjZjG3ShUaw-4" style="edgeStyle=none;rounded=0;orthogonalLoop=1;jettySize=auto;html=1;shadow=0;" edge="1" parent="1" source="mY3gvmDOgEjZjG3ShUaw-1" target="mY3gvmDOgEjZjG3ShUaw-3">
          <mxGeometry relative="1" as="geometry" />
        </mxCell>
        <mxCell id="mY3gvmDOgEjZjG3ShUaw-5" style="edgeStyle=none;rounded=0;orthogonalLoop=1;jettySize=auto;html=1;shadow=0;" edge="1" parent="1" source="mY3gvmDOgEjZjG3ShUaw-1" target="mY3gvmDOgEjZjG3ShUaw-2">
          <mxGeometry relative="1" as="geometry" />
        </mxCell>
        <mxCell id="mY3gvmDOgEjZjG3ShUaw-1" value="IMessage&lt;br&gt;消息" style="rounded=1;whiteSpace=wrap;html=1;fillColor=#d5e8d4;strokeColor=#82b366;" vertex="1" parent="1">
          <mxGeometry x="960" y="40" width="120" height="40" as="geometry" />
        </mxCell>
        <mxCell id="mY3gvmDOgEjZjG3ShUaw-2" value="ISystemMessage&lt;br&gt;系统消息" style="rounded=1;whiteSpace=wrap;html=1;fillColor=#d5e8d4;strokeColor=#82b366;" vertex="1" parent="1">
          <mxGeometry x="1041" y="160" width="120" height="40" as="geometry" />
        </mxCell>
        <mxCell id="mY3gvmDOgEjZjG3ShUaw-3" value="IUserMessage&lt;br&gt;用户消息" style="rounded=1;whiteSpace=wrap;html=1;fillColor=#d5e8d4;strokeColor=#82b366;" vertex="1" parent="1">
          <mxGeometry x="880" y="160" width="120" height="40" as="geometry" />
        </mxCell>
      </root>
    </mxGraphModel>
  </diagram>
  <diagram id="TeadAVfIFzLvUcLAVgFB" name="IUser">
    <mxGraphModel dx="185" dy="534" grid="1" gridSize="10" guides="1" tooltips="1" connect="1" arrows="1" fold="1" page="1" pageScale="1" pageWidth="680" pageHeight="240" math="0" shadow="0">
      <root>
        <mxCell id="0" />
        <mxCell id="1" parent="0" />
        <mxCell id="wX6krqP0cX5g3Y486Xa9-1" value="" style="rounded=0;whiteSpace=wrap;html=1;fillColor=none;" vertex="1" parent="1">
          <mxGeometry x="680" width="680" height="240" as="geometry" />
        </mxCell>
        <mxCell id="wX6krqP0cX5g3Y486Xa9-2" style="edgeStyle=none;rounded=0;orthogonalLoop=1;jettySize=auto;html=1;shadow=0;" edge="1" parent="1" source="wX6krqP0cX5g3Y486Xa9-4" target="wX6krqP0cX5g3Y486Xa9-6">
          <mxGeometry relative="1" as="geometry" />
        </mxCell>
        <mxCell id="wX6krqP0cX5g3Y486Xa9-3" style="edgeStyle=none;rounded=0;orthogonalLoop=1;jettySize=auto;html=1;shadow=0;" edge="1" parent="1" source="wX6krqP0cX5g3Y486Xa9-4" target="wX6krqP0cX5g3Y486Xa9-5">
          <mxGeometry relative="1" as="geometry" />
        </mxCell>
        <mxCell id="wX6krqP0cX5g3Y486Xa9-4" value="IUser&lt;br&gt;用户" style="rounded=1;whiteSpace=wrap;html=1;fillColor=#d5e8d4;strokeColor=#82b366;" vertex="1" parent="1">
          <mxGeometry x="960" y="40" width="120" height="40" as="geometry" />
        </mxCell>
        <mxCell id="wX6krqP0cX5g3Y486Xa9-5" value="IGuildUser&lt;br&gt;服务器用户" style="rounded=1;whiteSpace=wrap;html=1;fillColor=#d5e8d4;strokeColor=#82b366;" vertex="1" parent="1">
          <mxGeometry x="1041" y="160" width="120" height="40" as="geometry" />
        </mxCell>
        <mxCell id="wX6krqP0cX5g3Y486Xa9-6" value="ISelfUser&lt;br&gt;Bot 登录用户" style="rounded=1;whiteSpace=wrap;html=1;fillColor=#d5e8d4;strokeColor=#82b366;" vertex="1" parent="1">
          <mxGeometry x="880" y="160" width="120" height="40" as="geometry" />
        </mxCell>
        <mxCell id="P_OQLh-ZyBqrT-LF05k1-1" style="edgeStyle=none;rounded=0;orthogonalLoop=1;jettySize=auto;html=1;shadow=0;" edge="1" parent="1" source="wX6krqP0cX5g3Y486Xa9-7" target="wX6krqP0cX5g3Y486Xa9-4">
          <mxGeometry relative="1" as="geometry" />
        </mxCell>
        <mxCell id="wX6krqP0cX5g3Y486Xa9-7" value="IPresence&lt;br&gt;用户动态" style="rounded=1;whiteSpace=wrap;html=1;fillColor=#dae8fc;strokeColor=#6c8ebf;" vertex="1" parent="1">
          <mxGeometry x="800" y="40" width="120" height="40" as="geometry" />
        </mxCell>
      </root>
    </mxGraphModel>
  </diagram>
</mxfile>
